<?xml version="1.0" encoding="UTF-8"?>
<svg id="Layer_2" data-name="Layer 2" xmlns="http://www.w3.org/2000/svg" viewBox="0 0 767.02 175.18">
  <defs>
    <style>
      .cls-1 {
        fill: #efede3;
      }
    </style>
  </defs>
  <g id="Layer_1-2" data-name="Layer 1">
    <g>
      <path class="cls-1" d="M339.51,45.11c0-10.52-.18-22.28-.44-33.5h16.05l-.18,26.58h26.49c0-7.98-.09-17.72-.35-26.58h16.05c-.26,7.54-.26,21.05-.26,33.5s0,25.87.26,33.42h-16.05c.26-8.77.35-22.89.35-30.7h-26.49l.18,30.7h-16.05c.26-11.14.44-22.89.44-33.42Z"/>
      <path class="cls-1" d="M420.82,11.61h27.19c6.58,24.12,12.19,44.12,18.95,66.92h-16.49l-4.03-14.91h-24.12l-4.12,14.91h-16.31c6.75-22.8,12.28-42.71,18.94-66.92ZM434.85,18.53h-.88c-3.07,12.37-6.05,23.94-9.03,35.43h18.94c-3.07-11.49-5.96-23.07-9.03-35.43Z"/>
      <path class="cls-1" d="M472.22,45.11c0-10-.26-23.68-.53-33.5h31.22c21.14,0,26.22,7.02,26.22,18.24,0,12.81-7.19,17.54-20.7,17.63v1.23c13.07.44,17.89,4.91,19.56,14.03.79,4.3,2.81,11.93,4.21,15.79h-17.1c-1.4-4.3-2.28-9.47-2.89-14.47-.96-7.1-4.3-10.7-12.02-10.7h-12.54v25.17h-15.96c.26-9.74.53-23.51.53-33.42ZM512.92,32.92c0-7.89-4.3-10.79-13.07-10.79h-12.28v17.72c0,1.58.35,2.89,1.4,3.68h12.28c7.81-.44,11.67-3.16,11.67-10.61Z"/>
      <path class="cls-1" d="M539.23,45.2c0-9.38-.44-25.43-.53-33.59h50.17v10.79h-34.29v18.16l31.93-.44v10.53l-31.93-.44.18,28.33h-16.05c.18-7.89.53-22.98.53-33.33Z"/>
      <path class="cls-1" d="M339.25,127.34l-.17-33.5h30.17c18.59,0,27.1,7.37,27.1,23.94s-7.19,23.42-27.1,23.42c-8.77,0-11.84-1.58-14.12-7.28l-.96.18c.7,5,.7,6.49.7,11.05,0,3.6.09,9.47.26,15.61h-16.05l.17-33.42ZM367.93,130.67c7.54-.79,12.46-4.03,12.46-13.42s-5.09-12.89-14.12-12.89h-11.4l-.09,23.59c0,1.32.44,2.37,1.67,2.72h11.49Z"/>
      <path class="cls-1" d="M403.28,127.34c0-10-.26-23.68-.53-33.5h31.22c21.14,0,26.22,7.02,26.22,18.24,0,12.81-7.19,17.54-20.7,17.63v1.23c13.07.44,17.89,4.91,19.56,14.03.79,4.3,2.81,11.93,4.21,15.79h-17.1c-1.4-4.3-2.28-9.47-2.89-14.47-.96-7.1-4.3-10.7-12.02-10.7h-12.54v25.17h-15.96c.26-9.74.53-23.51.53-33.42ZM443.98,115.15c0-7.89-4.3-10.79-13.07-10.79h-12.28v17.72c0,1.58.35,2.89,1.4,3.68h12.28c7.81-.44,11.67-3.16,11.67-10.61Z"/>
      <path class="cls-1" d="M467.49,127.34c0-23.42,10.52-34.56,31.14-34.56s31.14,11.14,31.14,34.56-10.7,34.56-31.14,34.56-31.14-11.23-31.14-34.56ZM511.95,148.3c1.23-8.25,1.58-14.65,1.58-22.1,0-15.09-5.35-21.31-16.66-21.31-4.39,0-8.24.61-11.58,1.49-1.23,8.25-1.49,14.56-1.49,22.1,0,15.09,5.17,21.31,16.58,21.31,4.39,0,8.25-.7,11.58-1.49Z"/>
      <path class="cls-1" d="M533.88,136.55h15.44c.35,9.47,3.42,12.54,11.05,12.54,3.07,0,5.7-.44,7.98-.96.7-4.39.96-8.51.96-13.16v-30.35l-24.03.09v-10.88h40.17c-.61,14.21-.44,27.28-.44,41.4,0,16.84-8.42,26.66-25.61,26.66s-25.52-7.98-25.52-25.35Z"/>
      <path class="cls-1" d="M594.76,127.43c0-10.26-.26-25.79-.53-33.59h50.69v11.49h-34.82v15.88l32.45-.53v10.44l-32.45-.53v18.68h35.26v11.49h-51.13c.26-7.37.53-23.59.53-33.33Z"/>
      <path class="cls-1" d="M650.28,127.34c0-23.42,10.52-34.56,30.96-34.56,18.16,0,28.24,8.51,30.17,26.58l-16.14,1.75c-1.32-11.31-5.88-16.23-15.61-16.23-4.39,0-8.24.61-11.58,1.49-1.23,8.25-1.49,14.56-1.49,22.1,0,15.09,5.17,21.31,16.58,21.31,4.39,0,7.63-.7,10.96-1.49.61-4.12,1.05-8.07,1.23-11.4h15.88c-2.19,16.49-13.16,25-30.35,25-20.08,0-30.61-11.23-30.61-34.56Z"/>
      <path class="cls-1" d="M732.91,128.48c0-7.46-.17-16.05-.44-23.42h-18.59v-11.23h53.15v11.23h-18.68c-.26,7.37-.44,15.96-.44,23.42,0,10.79.26,21.58.53,32.28h-16.14c.26-10.7.61-21.49.61-32.28Z"/>
    </g>
    <g>
      <path class="cls-1" d="M0,100.63c0-12.97,3.28-25.55,10.35-38.78l12.71,4.85c-3.14,7.47-4.59,13.76-4.59,18.61,0,15.59,18.74,19.79,41.14,19.79,29.09,0,50.31.66,50.84-17.69,0-3.28-.39-6.29-1.05-8.78l-1.7.13v11.14c-4.85,5.37-13.23,7.73-20.31,7.73-17.43,0-26.34-14.02-26.34-28.96,0-16.77,12.58-38.78,31.71-38.78,21.49,0,30.4,28.04,30.4,48.48-.26,49.13-23.45,58.96-68,58.83C16.51,137.19,0,124.08,0,100.63ZM106.92,72.07c-4.06-10.48-12.32-16.51-21.09-16.51-7.99,0-14.41,5.37-14.41,13.1,4.19,3.14,10.48,5.11,19.92,5.11,5.11,0,10.35-.39,15.59-1.7ZM105.74,11.66l-12.71,11.92-12.84-11.92L92.9,0l12.84,11.66Z"/>
      <path class="cls-1" d="M121.06,174.13l3.93-30.92c3.67.26,7.34.39,10.74.39,8.12,0,14.28-1.83,18.21-6.03,0-14.41-10.88-47.69-18.61-63.42l24.63-5.63,7.73,26.73c2.23,7.99,7.86,9.83,16.64,9.83,6.42.92,5.76,28.43-4.46,32.1-2.62,0-5.77-.39-8.78-2.1l1.05-13.5h-2.36c.39,36.82-19.92,53.59-39.44,53.59-3.01,0-6.42-.39-9.3-1.05Z"/>
      <path class="cls-1" d="M184.22,105.08c31.05,0,51.23-13.89,65.78-15.85v-1.44c-9.57-.79-23.06-6.03-33.8-6.03-5.11,0-7.86,2.36-8.12,9.43l-19.79-.92c-.26-3.28-.26-6.03-.26-8.78.26-17.56,7.08-28.83,22.01-28.83,18.34,0,36.56,14.94,52.67,14.94h12.58l-1.96,26.99h-2.36c-14.94,0-26.34,6.68-41.01,19.92-15.72,14.02-28.3,22.67-50.18,22.67-6.42-.92-5.77-28.43,4.46-32.1Z"/>
    </g>
  </g>
</svg>